<?xml version="1.0" encoding="UTF-8" standalone="no"?>
<!-- Generator: Adobe Illustrator 27.5.0, SVG Export Plug-In . SVG Version: 6.00 Build 0)  -->

<svg
   version="1.1"
   x="0px"
   y="0px"
   viewBox="0 0 2200 1466"
   style="enable-background:new 0 0 2200 1466;"
   xml:space="preserve"
   id="svg12"
   sodipodi:docname="148768013_a4a0801a-2ba9-4571-a244-823120e79c2b.svg"
   inkscape:export-filename="148768013_a4a0801a-2ba9-4571-a244-823120e79c2b.svg"
   inkscape:export-xdpi="96"
   inkscape:export-ydpi="96"
   inkscape:version="1.2.1 (9c6d41e410, 2022-07-14)"
   xmlns:inkscape="http://www.inkscape.org/namespaces/inkscape"
   xmlns:sodipodi="http://sodipodi.sourceforge.net/DTD/sodipodi-0.dtd"
   xmlns="http://www.w3.org/2000/svg"
   xmlns:svg="http://www.w3.org/2000/svg"><defs
   id="defs16" /><sodipodi:namedview
   id="namedview14"
   pagecolor="#ffffff"
   bordercolor="#000000"
   borderopacity="0.25"
   inkscape:showpageshadow="2"
   inkscape:pageopacity="0.0"
   inkscape:pagecheckerboard="0"
   inkscape:deskcolor="#d1d1d1"
   showgrid="false"
   inkscape:zoom="0.16098226"
   inkscape:cx="1099.5"
   inkscape:cy="736.10593"
   inkscape:window-width="1440"
   inkscape:window-height="830"
   inkscape:window-x="-6"
   inkscape:window-y="-6"
   inkscape:window-maximized="1"
   inkscape:current-layer="svg12" />
<g
   id="Background">
	<rect
   y="0"
   style="fill:#FFFFFF;"
   width="2200"
   height="1466"
   id="rect2" />
</g>
<g
   id="Objects">
	<g
   id="g9">
		<path
   d="M1148.035,931.175l62.966-101.715h35.421c1.789,0,3.24-1.448,3.24-3.24v-38.233c0-1.789-1.451-3.24-3.24-3.24h-7.74    l30.545-49.338h31.468c1.789,0,3.24-1.451,3.24-3.24v-38.233c0-1.789-1.451-3.24-3.24-3.24h-3.79l30.928-49.958    c68.314,0,113.328,0,113.328,0c61.056,0,108.856-24.361,108.856-39.928c0-15.567-47.8-39.928-108.856-39.928    c0,0-45.014,0-113.328,0l-30.928-49.958h3.79c1.789,0,3.24-1.451,3.24-3.24v-38.233c0-1.789-1.451-3.24-3.24-3.24h-31.468    l-30.545-49.338h7.74c1.789,0,3.24-1.451,3.24-3.24v-38.233c0-1.792-1.451-3.24-3.24-3.24h-35.421l-62.966-101.715    c-2.099-3.386-5.798-5.446-9.779-5.446h-26.811c-2.742,0-4.656,2.721-3.727,5.304l54.673,151.651h-3.953    c-1.232,0-2.394,0.292-3.25,0.769c-0.856,0.473-1.403,1.131-1.403,1.855c0,1.451,2.269,2.624,4.653,2.624h5.847l19.231,53.347    v23.484h-5.961c-1.232,0-2.394,0.292-3.25,0.769c-0.856,0.473-1.403,1.131-1.403,1.855c0,1.451,2.269,2.624,4.653,2.624h5.961    v51.6c-14.707,0-29.695,0-44.866,0c-30.959,0-57.623,1.356-80.532,3.567l0.018-0.003l-64.518-95.409    c-0.999-1.478-2.667-2.363-4.45-2.363h-16.435c-3.411,0-5.958,3.137-5.258,6.475l10.472,49.953h-3.713    c-1.232,0-2.394,0.292-3.25,0.769c-0.856,0.473-1.403,1.131-1.403,1.855c0,1.451,2.269,2.624,4.653,2.624h4.817l7.336,34.993    h-3.981c-1.232,0-2.394,0.292-3.25,0.769c-0.856,0.473-1.403,1.131-1.403,1.855c0,1.451,2.269,2.624,4.653,2.624h5.081    l1.496,7.137c-25.294,6.283-40.971,13.291-49.932,18.299h-30.291c-3.188,0-6.195,0.759-8.405,1.987    c-2.21,1.225-3.623,2.923-3.623,4.796c0,3.748,5.861,6.783,12.027,6.783h30.291c8.961,5.008,24.639,12.016,49.932,18.299    l-1.496,7.137h-5.081c-2.384,0-4.653,1.173-4.653,2.624c0,0.724,0.546,1.382,1.403,1.855c0.856,0.477,2.018,0.769,3.25,0.769    h3.981l-7.336,34.993h-4.817c-2.384,0-4.653,1.173-4.653,2.624c0,0.724,0.546,1.382,1.403,1.855    c0.856,0.477,2.018,0.769,3.25,0.769h3.713l-10.472,49.953c-0.7,3.338,1.848,6.475,5.258,6.475h16.435    c1.784,0,3.451-0.885,4.45-2.363l64.518-95.409l-0.018-0.003c22.909,2.211,49.573,3.567,80.532,3.567c15.171,0,30.159,0,44.866,0    v51.6h-5.961c-2.384,0-4.653,1.173-4.653,2.624c0,0.724,0.546,1.382,1.403,1.855c0.856,0.477,2.018,0.769,3.25,0.769h5.961v23.484    l-19.231,53.347h-5.847c-2.384,0-4.653,1.173-4.653,2.624c0,0.724,0.546,1.382,1.403,1.855c0.856,0.477,2.018,0.769,3.25,0.769    h3.953l-54.673,151.651c-0.929,2.582,0.985,5.304,3.727,5.304h26.811C1142.237,936.621,1145.936,934.561,1148.035,931.175z"
   id="path5" />
		
	</g>
</g>
</svg>
